<svg xmlns="http://www.w3.org/2000/svg" width="1920" height="1080" viewBox="0 0 1920 1080"><defs><style>@font-face{font-family:NotoKR;src:url("../../포트폴리오/NotoSansKR.ttf") format("truetype");} text{font-family:NotoKR,Arial,sans-serif;}</style><filter id="shadow" x="-20%" y="-20%" width="140%" height="140%"><feDropShadow dx="0" dy="4" stdDeviation="8" flood-color="#09111F" flood-opacity="0.06"/></filter><filter id="softShadow" x="-20%" y="-20%" width="140%" height="140%"><feDropShadow dx="0" dy="2" stdDeviation="5" flood-color="#09111F" flood-opacity="0.05"/></filter></defs><rect x="0" y="0" width="1920" height="1080" rx="0" fill="#F5F7FA" stroke="none" stroke-width="0" opacity="1" /><text x="110" y="70" font-family="NotoKR, Arial, sans-serif" font-size="18" font-weight="700" font-style="normal" fill="#2563EB" text-anchor="start" letter-spacing="2.2" opacity="1">01  /  PROBLEM</text><text x="1810" y="70" font-family="NotoKR, Arial, sans-serif" font-size="18" font-weight="800" font-style="normal" fill="#111827" text-anchor="end" letter-spacing="2.5" opacity="0.65">TASQRA</text><text x="110" y="130" font-family="NotoKR, Arial, sans-serif" font-size="20" font-weight="800" font-style="normal" fill="#2563EB" text-anchor="start" letter-spacing="1.8" opacity="1">WHY TASQRA</text><text x="110" y="205" font-family="NotoKR, Arial, sans-serif" font-size="56" font-weight="800" fill="#111827" text-anchor="start"><tspan x="110" dy="0">문서는 쌓이는데,</tspan><tspan x="110" dy="64.39999999999999">업무는 연결되지 않습니다</tspan></text><text x="112" y="340" font-family="NotoKR, Arial, sans-serif" font-size="25" font-weight="500" font-style="normal" fill="#475569" text-anchor="start" letter-spacing="0" opacity="1">프로젝트 정보가 문서 안에 머무르면 검색·판단·후속 실행이 반복해서 끊어집니다.</text><rect x="110" y="420" width="500" height="345" rx="8" fill="#FFFFFF" stroke="#D5DCE7" stroke-width="2" opacity="1" filter="url(#softShadow)"/><rect x="110" y="420" width="5" height="345" rx="0" fill="#2563EB" stroke="none" stroke-width="0" opacity="1" /><rect x="142" y="460" width="64" height="36" rx="8" fill="#E9EFFB" stroke="none" stroke-width="0" opacity="1" /><text x="174.0" y="483.78" font-family="NotoKR, Arial, sans-serif" font-size="17" font-weight="700" font-style="normal" fill="#2563EB" text-anchor="middle" letter-spacing="0" opacity="1">01</text><rect x="493" y="460" width="80" height="80" rx="6" fill="#EEF2F7" stroke="#2563EB" stroke-width="1" opacity="1" /><g fill="none" stroke="#2563EB" stroke-width="3" stroke-linecap="round"><circle cx="529.85" cy="496.64" r="10.08"/><line x1="537.2" y1="503.99" x2="546.44" y2="513.23"/></g><text x="144" y="565" font-family="NotoKR, Arial, sans-serif" font-size="34" font-weight="800" font-style="normal" fill="#111827" text-anchor="start" letter-spacing="0" opacity="1">찾기 어렵다</text><text x="144" y="625" font-family="NotoKR, Arial, sans-serif" font-size="24" font-weight="500" fill="#475569" text-anchor="start"><tspan x="144" dy="0">회의록·보고서·요구사항이 흩어져</tspan><tspan x="144" dy="37.2">필요한 근거를 다시 찾아야 합니다.</tspan></text><line x1="144" y1="720" x2="576" y2="720" stroke="#D5DCE7" stroke-width="2" stroke-linecap="square" opacity="1"/><text x="144" y="746" font-family="NotoKR, Arial, sans-serif" font-size="14" font-weight="800" font-style="normal" fill="#64748B" text-anchor="start" letter-spacing="2.0" opacity="1">INFORMATION GAP</text><rect x="680" y="420" width="500" height="345" rx="8" fill="#FFFFFF" stroke="#D5DCE7" stroke-width="2" opacity="1" filter="url(#softShadow)"/><rect x="680" y="420" width="5" height="345" rx="0" fill="#2FA8CC" stroke="none" stroke-width="0" opacity="1" /><rect x="712" y="460" width="64" height="36" rx="8" fill="#E9EFFB" stroke="none" stroke-width="0" opacity="1" /><text x="744.0" y="483.78" font-family="NotoKR, Arial, sans-serif" font-size="17" font-weight="700" font-style="normal" fill="#2563EB" text-anchor="middle" letter-spacing="0" opacity="1">02</text><rect x="1063" y="460" width="80" height="80" rx="6" fill="#EEF2F7" stroke="#2FA8CC" stroke-width="1" opacity="1" /><g fill="none" stroke="#2FA8CC" stroke-width="3" stroke-linecap="round"><line x1="1103" y1="489.08" x2="1103" y2="500"/><line x1="1092.92" y1="509.45" x2="1113.08" y2="509.45"/><line x1="1092.92" y1="509.45" x2="1103" y2="500"/><line x1="1113.08" y1="509.45" x2="1103" y2="500"/><circle cx="1103" cy="487.82" r="3.78" fill="#2FA8CC"/><circle cx="1092.08" cy="510.08" r="3.78" fill="#2FA8CC"/><circle cx="1113.92" cy="510.08" r="3.78" fill="#2FA8CC"/></g><text x="714" y="565" font-family="NotoKR, Arial, sans-serif" font-size="34" font-weight="800" font-style="normal" fill="#111827" text-anchor="start" letter-spacing="0" opacity="1">판단이 남지 않는다</text><text x="714" y="625" font-family="NotoKR, Arial, sans-serif" font-size="24" font-weight="500" fill="#475569" text-anchor="start"><tspan x="714" dy="0">결정사항·일정·금액이 문장 속에 묻혀</tspan><tspan x="714" dy="37.2">같은 확인이 반복됩니다.</tspan></text><line x1="714" y1="720" x2="1146" y2="720" stroke="#D5DCE7" stroke-width="2" stroke-linecap="square" opacity="1"/><text x="714" y="746" font-family="NotoKR, Arial, sans-serif" font-size="14" font-weight="800" font-style="normal" fill="#64748B" text-anchor="start" letter-spacing="2.0" opacity="1">INFORMATION GAP</text><rect x="1250" y="420" width="500" height="345" rx="8" fill="#FFFFFF" stroke="#D5DCE7" stroke-width="2" opacity="1" filter="url(#softShadow)"/><rect x="1250" y="420" width="5" height="345" rx="0" fill="#2563EB" stroke="none" stroke-width="0" opacity="1" /><rect x="1282" y="460" width="64" height="36" rx="8" fill="#E9EFFB" stroke="none" stroke-width="0" opacity="1" /><text x="1314.0" y="483.78" font-family="NotoKR, Arial, sans-serif" font-size="17" font-weight="700" font-style="normal" fill="#2563EB" text-anchor="middle" letter-spacing="0" opacity="1">03</text><rect x="1633" y="460" width="80" height="80" rx="6" fill="#EEF2F7" stroke="#2563EB" stroke-width="1" opacity="1" /><g fill="none" stroke="#2563EB" stroke-width="3" stroke-linecap="round" stroke-linejoin="round"><rect x="1659.35" y="487.4" width="27.3" height="25.2" rx="6"/><path d="M 1663.1299999999999 494.75 l 2.1 2.1 l 3.78 -4.2"/><line x1="1670.8999999999999" y1="494.53999999999996" x2="1681.3999999999999" y2="494.53999999999996"/><path d="M 1663.1299999999999 503.35999999999996 l 2.1 2.1 l 3.78 -4.2"/><line x1="1670.8999999999999" y1="503.15" x2="1681.3999999999999" y2="503.15"/></g><text x="1284" y="565" font-family="NotoKR, Arial, sans-serif" font-size="34" font-weight="800" font-style="normal" fill="#111827" text-anchor="start" letter-spacing="0" opacity="1">실행으로 이어지지 않는다</text><text x="1284" y="625" font-family="NotoKR, Arial, sans-serif" font-size="24" font-weight="500" fill="#475569" text-anchor="start"><tspan x="1284" dy="0">액션아이템이 실제 태스크로 연결되지 않아</tspan><tspan x="1284" dy="37.2">누락과 재작업이 생깁니다.</tspan></text><line x1="1284" y1="720" x2="1716" y2="720" stroke="#D5DCE7" stroke-width="2" stroke-linecap="square" opacity="1"/><text x="1284" y="746" font-family="NotoKR, Arial, sans-serif" font-size="14" font-weight="800" font-style="normal" fill="#64748B" text-anchor="start" letter-spacing="2.0" opacity="1">INFORMATION GAP</text><rect x="110" y="825" width="1640" height="140" rx="8" fill="#111B31" stroke="none" stroke-width="0" opacity="1" filter="url(#softShadow)"/><circle cx="180" cy="895" r="30" fill="#2563EB" stroke="none" stroke-width="0" opacity="1" /><g fill="none" stroke="#FFFFFF" stroke-width="3" stroke-linecap="round" stroke-linejoin="round"><rect x="170.65" y="883.44" width="18.700000000000003" height="23.12" rx="5"/><path d="M 182.21 883.44 v 5.78 h 7.14"/><line x1="174.39000000000001" y1="894.49" x2="184.93" y2="894.49"/><line x1="174.39000000000001" y1="898.9100000000001" x2="182.89000000000001" y2="898.9100000000001"/></g><text x="240" y="882" font-family="NotoKR, Arial, sans-serif" font-size="18" font-weight="800" font-style="normal" fill="#2FA8CC" text-anchor="start" letter-spacing="1.3" opacity="1">핵심 문제</text><text x="240" y="925" font-family="NotoKR, Arial, sans-serif" font-size="31" font-weight="700" font-style="normal" fill="#FFFFFF" text-anchor="start" letter-spacing="0" opacity="1">문서 보관의 문제가 아니라, 정보가 실행으로 이어지지 않는 문제입니다.</text></svg>