<svg xmlns="http://www.w3.org/2000/svg" width="1920" height="1080" viewBox="0 0 1920 1080"><defs><style>@font-face{font-family:NotoKR;src:url("../../포트폴리오/NotoSansKR.ttf") format("truetype");} text{font-family:NotoKR,Arial,sans-serif;}</style><filter id="shadow" x="-20%" y="-20%" width="140%" height="140%"><feDropShadow dx="0" dy="4" stdDeviation="8" flood-color="#09111F" flood-opacity="0.06"/></filter><filter id="softShadow" x="-20%" y="-20%" width="140%" height="140%"><feDropShadow dx="0" dy="2" stdDeviation="5" flood-color="#09111F" flood-opacity="0.05"/></filter></defs><rect x="0" y="0" width="1920" height="1080" rx="0" fill="#09111F" stroke="none" stroke-width="0" opacity="1" /><text x="80" y="60" font-family="NotoKR, Arial, sans-serif" font-size="17" font-weight="800" font-style="normal" fill="#2FA8CC" text-anchor="start" letter-spacing="2" opacity="1">28  /  CONCLUSION</text><text x="1840" y="60" font-family="NotoKR, Arial, sans-serif" font-size="16" font-weight="800" font-style="normal" fill="#FFFFFF" text-anchor="end" letter-spacing="2.6" opacity="0.62">TASQRA</text><line x1="80" y1="1015" x2="1840" y2="1015" stroke="#29385F" stroke-width="1" stroke-linecap="square" opacity="1"/><text x="80" y="1050" font-family="NotoKR, Arial, sans-serif" font-size="14" font-weight="700" font-style="normal" fill="#8EA0CA" text-anchor="start" letter-spacing="1" opacity="1">PRESENTER  박세현</text><text x="1840" y="1050" font-family="NotoKR, Arial, sans-serif" font-size="14" font-weight="700" font-style="normal" fill="#8EA0CA" text-anchor="end" letter-spacing="1" opacity="1">OWNER  팀</text><text x="80" y="125" font-family="NotoKR, Arial, sans-serif" font-size="18" font-weight="800" font-style="normal" fill="#2FA8CC" text-anchor="start" letter-spacing="1.6" opacity="1">FROM DOCUMENTS TO DECISIONS</text><text x="80" y="195" font-family="NotoKR, Arial, sans-serif" font-size="47" font-weight="800" font-style="normal" fill="#FFFFFF" text-anchor="start" letter-spacing="-0.8" opacity="1">문서를 저장하는 도구에서, 판단과 실행을 잇는 플랫폼으로</text><rect x="110" y="360" width="520" height="350" rx="8" fill="#17264F" stroke="#2FA8CC" stroke-width="1" opacity="1" /><rect x="110" y="360" width="5" height="350" rx="0" fill="#2FA8CC" stroke="none" stroke-width="0" opacity="1" /><rect x="138" y="392" width="62" height="34" rx="8" fill="#2FA8CC" stroke="none" stroke-width="0" opacity="1" /><text x="169.0" y="414.1" font-family="NotoKR, Arial, sans-serif" font-size="15" font-weight="700" font-style="normal" fill="#FFFFFF" text-anchor="middle" letter-spacing="0" opacity="1">01</text><rect x="532" y="388" width="70" height="70" rx="5" fill="#24345F" stroke="#2FA8CC" stroke-width="1" opacity="1" /><g fill="none" stroke="#2FA8CC" stroke-width="3" stroke-linecap="round"><circle cx="564.6" cy="420.44" r="7.68"/><line x1="570.2" y1="426.04" x2="577.24" y2="433.08"/></g><text x="140" y="476" font-family="NotoKR, Arial, sans-serif" font-size="30" font-weight="800" font-style="normal" fill="#FFFFFF" text-anchor="start" letter-spacing="0" opacity="1">근거를 찾는다</text><text x="140" y="526" font-family="NotoKR, Arial, sans-serif" font-size="20" font-weight="500" fill="#C8D4EC" text-anchor="start"><tspan x="140" dy="0">하이브리드 검색</tspan><tspan x="140" dy="30.0">원문 위치가 있는 QA</tspan></text><rect x="700" y="360" width="520" height="350" rx="8" fill="#17264F" stroke="#2563EB" stroke-width="1" opacity="1" /><rect x="700" y="360" width="5" height="350" rx="0" fill="#2563EB" stroke="none" stroke-width="0" opacity="1" /><rect x="728" y="392" width="62" height="34" rx="8" fill="#2563EB" stroke="none" stroke-width="0" opacity="1" /><text x="759.0" y="414.1" font-family="NotoKR, Arial, sans-serif" font-size="15" font-weight="700" font-style="normal" fill="#FFFFFF" text-anchor="middle" letter-spacing="0" opacity="1">02</text><rect x="1122" y="388" width="70" height="70" rx="5" fill="#24345F" stroke="#2563EB" stroke-width="1" opacity="1" /><g fill="none" stroke="#2563EB" stroke-width="3" stroke-linecap="round" stroke-linejoin="round"><circle cx="1157" cy="423" r="10.56"/><path d="M 1151.56 423 l 4.0 4.32 l 7.68 -8.32"/></g><text x="730" y="476" font-family="NotoKR, Arial, sans-serif" font-size="30" font-weight="800" font-style="normal" fill="#FFFFFF" text-anchor="start" letter-spacing="0" opacity="1">사람이 확정한다</text><text x="730" y="526" font-family="NotoKR, Arial, sans-serif" font-size="20" font-weight="500" fill="#C8D4EC" text-anchor="start"><tspan x="730" dy="0">PENDING 검토</tspan><tspan x="730" dy="30.0">승인된 정보만 소비</tspan></text><rect x="1290" y="360" width="520" height="350" rx="8" fill="#17264F" stroke="#4267B2" stroke-width="1" opacity="1" /><rect x="1290" y="360" width="5" height="350" rx="0" fill="#4267B2" stroke="none" stroke-width="0" opacity="1" /><rect x="1318" y="392" width="62" height="34" rx="8" fill="#4267B2" stroke="none" stroke-width="0" opacity="1" /><text x="1349.0" y="414.1" font-family="NotoKR, Arial, sans-serif" font-size="15" font-weight="700" font-style="normal" fill="#FFFFFF" text-anchor="middle" letter-spacing="0" opacity="1">03</text><rect x="1712" y="388" width="70" height="70" rx="5" fill="#24345F" stroke="#4267B2" stroke-width="1" opacity="1" /><g fill="none" stroke="#4267B2" stroke-width="3" stroke-linecap="round" stroke-linejoin="round"><rect x="1736.6" y="413.4" width="20.8" height="19.2" rx="6"/><path d="M 1739.48 419.0 l 1.6 1.6 l 2.88 -3.2"/><line x1="1745.3999999999999" y1="418.84" x2="1753.3999999999999" y2="418.84"/><path d="M 1739.48 425.56 l 1.6 1.6 l 2.88 -3.2"/><line x1="1745.3999999999999" y1="425.4" x2="1753.3999999999999" y2="425.4"/></g><text x="1320" y="476" font-family="NotoKR, Arial, sans-serif" font-size="30" font-weight="800" font-style="normal" fill="#FFFFFF" text-anchor="start" letter-spacing="0" opacity="1">업무로 연결한다</text><text x="1320" y="526" font-family="NotoKR, Arial, sans-serif" font-size="20" font-weight="500" fill="#C8D4EC" text-anchor="start"><tspan x="1320" dy="0">태스크 · 대시보드</tspan><tspan x="1320" dy="30.0">4종 산출물</tspan></text><rect x="110" y="790" width="1700" height="125" rx="8" fill="#1D2D59" stroke="#344A7E" stroke-width="1" opacity="1" /><text x="960" y="850" font-family="NotoKR, Arial, sans-serif" font-size="29" font-weight="800" font-style="normal" fill="#FFFFFF" text-anchor="middle" letter-spacing="0" opacity="1">AI가 제안하고, 사람이 확정하고, 승인된 정보가 실행으로 이어집니다.</text><text x="960" y="892" font-family="NotoKR, Arial, sans-serif" font-size="18" font-weight="800" font-style="normal" fill="#2FA8CC" text-anchor="middle" letter-spacing="2.2" opacity="1">Tasqra</text></svg>