<svg xmlns="http://www.w3.org/2000/svg" width="1920" height="1080" viewBox="0 0 1920 1080"><defs><style>@font-face{font-family:NotoKR;src:url("../../포트폴리오/NotoSansKR.ttf") format("truetype");} text{font-family:NotoKR,Arial,sans-serif;}</style><filter id="shadow" x="-20%" y="-20%" width="140%" height="140%"><feDropShadow dx="0" dy="4" stdDeviation="8" flood-color="#09111F" flood-opacity="0.06"/></filter><filter id="softShadow" x="-20%" y="-20%" width="140%" height="140%"><feDropShadow dx="0" dy="2" stdDeviation="5" flood-color="#09111F" flood-opacity="0.05"/></filter></defs><rect x="0" y="0" width="1920" height="1080" rx="0" fill="#F5F7FA" stroke="none" stroke-width="0" opacity="1" /><text x="110" y="70" font-family="NotoKR, Arial, sans-serif" font-size="18" font-weight="700" font-style="normal" fill="#2563EB" text-anchor="start" letter-spacing="2.2" opacity="1">02  /  SERVICE GOAL</text><text x="1810" y="70" font-family="NotoKR, Arial, sans-serif" font-size="18" font-weight="800" font-style="normal" fill="#111827" text-anchor="end" letter-spacing="2.5" opacity="0.65">TASQRA</text><text x="110" y="130" font-family="NotoKR, Arial, sans-serif" font-size="20" font-weight="800" font-style="normal" fill="#2563EB" text-anchor="start" letter-spacing="1.8" opacity="1">HUMAN IN THE LOOP</text><text x="110" y="205" font-family="NotoKR, Arial, sans-serif" font-size="56" font-weight="800" fill="#111827" text-anchor="start"><tspan x="110" dy="0">Tasqra는 문서에서 실행까지</tspan><tspan x="110" dy="64.39999999999999">한 흐름으로 연결합니다</tspan></text><line x1="960" y1="600" x2="400" y2="530" stroke="#B8C7E6" stroke-width="5" stroke-linecap="square" opacity="1"/><circle cx="680.0" cy="565.0" r="8" fill="#2FA8CC" stroke="none" stroke-width="0" opacity="1" /><line x1="960" y1="600" x2="1520" y2="530" stroke="#B8C7E6" stroke-width="5" stroke-linecap="square" opacity="1"/><circle cx="1240.0" cy="565.0" r="8" fill="#2FA8CC" stroke="none" stroke-width="0" opacity="1" /><line x1="960" y1="600" x2="960" y2="900" stroke="#B8C7E6" stroke-width="5" stroke-linecap="square" opacity="1"/><circle cx="960.0" cy="750.0" r="8" fill="#2FA8CC" stroke="none" stroke-width="0" opacity="1" /><rect x="785" y="435" width="350" height="330" rx="8" fill="#111B31" stroke="#D9E3FA" stroke-width="6" opacity="1" filter="url(#shadow)"/><rect x="805" y="455" width="310" height="290" rx="4" fill="#1D2E5C" stroke="#2563EB" stroke-width="2" opacity="1" /><text x="960" y="550" font-family="NotoKR, Arial, sans-serif" font-size="26" font-weight="500" font-style="normal" fill="#C4D0EC" text-anchor="middle" letter-spacing="0" opacity="1">AI가 제안하고,</text><text x="960" y="615" font-family="NotoKR, Arial, sans-serif" font-size="52" font-weight="800" font-style="normal" fill="#FFFFFF" text-anchor="middle" letter-spacing="0" opacity="1">사람이</text><text x="960" y="672" font-family="NotoKR, Arial, sans-serif" font-size="50" font-weight="800" font-style="normal" fill="#2FA8CC" text-anchor="middle" letter-spacing="0" opacity="1">확정합니다</text><rect x="155" y="415" width="490" height="260" rx="8" fill="#FFFFFF" stroke="#D5DCE7" stroke-width="2" opacity="1" filter="url(#softShadow)"/><rect x="184" y="449" width="72" height="72" rx="6" fill="#EEF2F7" stroke="#2563EB" stroke-width="1" opacity="1" /><g fill="none" stroke="#2563EB" stroke-width="3" stroke-linecap="round"><circle cx="217.45" cy="482.28" r="8.16"/><line x1="223.4" y1="488.23" x2="230.88" y2="495.71"/></g><text x="275" y="470" font-family="NotoKR, Arial, sans-serif" font-size="17" font-weight="800" font-style="normal" fill="#2563EB" text-anchor="start" letter-spacing="1.6" opacity="1">01</text><text x="275" y="517" font-family="NotoKR, Arial, sans-serif" font-size="33" font-weight="800" font-style="normal" fill="#111827" text-anchor="start" letter-spacing="0" opacity="1">찾는다</text><text x="197" y="580" font-family="NotoKR, Arial, sans-serif" font-size="24" font-weight="500" fill="#475569" text-anchor="start"><tspan x="197" dy="0">문서 근거와 함께 필요한 정보를</tspan><tspan x="197" dy="36.0">검색합니다.</tspan></text><rect x="1275" y="415" width="490" height="260" rx="8" fill="#FFFFFF" stroke="#D5DCE7" stroke-width="2" opacity="1" filter="url(#softShadow)"/><rect x="1304" y="449" width="72" height="72" rx="6" fill="#EEF2F7" stroke="#2FA8CC" stroke-width="1" opacity="1" /><g fill="none" stroke="#2FA8CC" stroke-width="3" stroke-linecap="round"><line x1="1340" y1="476.16" x2="1340" y2="485"/><line x1="1331.84" y1="492.65" x2="1348.16" y2="492.65"/><line x1="1331.84" y1="492.65" x2="1340" y2="485"/><line x1="1348.16" y1="492.65" x2="1340" y2="485"/><circle cx="1340" cy="475.14" r="3.06" fill="#2FA8CC"/><circle cx="1331.16" cy="493.16" r="3.06" fill="#2FA8CC"/><circle cx="1348.84" cy="493.16" r="3.06" fill="#2FA8CC"/></g><text x="1395" y="470" font-family="NotoKR, Arial, sans-serif" font-size="17" font-weight="800" font-style="normal" fill="#2FA8CC" text-anchor="start" letter-spacing="1.6" opacity="1">02</text><text x="1395" y="517" font-family="NotoKR, Arial, sans-serif" font-size="33" font-weight="800" font-style="normal" fill="#111827" text-anchor="start" letter-spacing="0" opacity="1">구조화한다</text><text x="1317" y="580" font-family="NotoKR, Arial, sans-serif" font-size="24" font-weight="500" fill="#475569" text-anchor="start"><tspan x="1317" dy="0">결정사항·일정·액션아이템·금액을</tspan><tspan x="1317" dy="36.0">검토 가능한 정보로 정리합니다.</tspan></text><rect x="715" y="825" width="490" height="190" rx="8" fill="#FFFFFF" stroke="#D5DCE7" stroke-width="2" opacity="1" filter="url(#softShadow)"/><rect x="744" y="859" width="72" height="72" rx="6" fill="#EEF2F7" stroke="#2563EB" stroke-width="1" opacity="1" /><g fill="none" stroke="#2563EB" stroke-width="3" stroke-linecap="round" stroke-linejoin="round"><rect x="768.95" y="884.8" width="22.1" height="20.4" rx="6"/><path d="M 772.01 890.75 l 1.7000000000000002 1.7000000000000002 l 3.06 -3.4000000000000004"/><line x1="778.3000000000001" y1="890.5799999999999" x2="786.8000000000001" y2="890.5799999999999"/><path d="M 772.01 897.7199999999999 l 1.7000000000000002 1.7000000000000002 l 3.06 -3.4000000000000004"/><line x1="778.3000000000001" y1="897.55" x2="786.8000000000001" y2="897.55"/></g><text x="835" y="880" font-family="NotoKR, Arial, sans-serif" font-size="17" font-weight="800" font-style="normal" fill="#2563EB" text-anchor="start" letter-spacing="1.6" opacity="1">03</text><text x="835" y="927" font-family="NotoKR, Arial, sans-serif" font-size="33" font-weight="800" font-style="normal" fill="#111827" text-anchor="start" letter-spacing="0" opacity="1">연결한다</text><text x="757" y="990" font-family="NotoKR, Arial, sans-serif" font-size="22" font-weight="500" fill="#475569" text-anchor="start"><tspan x="757" dy="0">승인된 정보를 태스크·대시보드·산출물에 반영합니다.</tspan></text></svg>